<svg width="174" height="29" viewBox="0 0 174 29" fill="none" xmlns="http://www.w3.org/2000/svg">
<path d="M62.9145 0H55.7759L52.4445 8.00311C53.3964 9.8862 53.8723 11.9576 53.8723 14.2173C53.8723 20.4315 49.7795 25.7041 44.1638 27.6814L43.7831 28.3404H52.8253L59.2976 13.1816L65.7699 28.4346H75.0024L62.9145 0Z" fill="white"/>
<path d="M25.2229 14.2178C25.2229 10.5458 26.6507 7.25037 28.8398 4.80236V0.000488281H21.7013L14.3723 13.9353L7.13857 0.000488281H0V28.3409H7.13857V15.1593L14.4675 29L21.7964 15.1593V28.3409H28.935V23.6332C26.5555 21.091 25.2229 17.7956 25.2229 14.2178Z" fill="white"/>
<path d="M39.4999 21.4666C43.5476 21.4666 46.8288 18.2207 46.8288 14.2167C46.8288 10.2127 43.5476 6.9668 39.4999 6.9668C35.4522 6.9668 32.171 10.2127 32.171 14.2167C32.171 18.2207 35.4522 21.4666 39.4999 21.4666Z" fill="#D5642A"/>
<path d="M88.4229 6.77928L86.2337 1.7891V6.77928H84.9963V0.188477H86.8048L89.0891 5.36696L91.4686 0.188477H93.2771V6.77928H92.0397V1.7891L89.7554 6.77928H88.4229Z" fill="white"/>
<path d="M110.791 6.77928H107.745C105.841 6.77928 104.889 6.21435 104.889 3.48388C104.889 0.753402 105.841 0.188477 107.745 0.188477H110.791V1.31833H107.84C106.793 1.31833 106.317 1.69495 106.317 3.48388C106.317 5.27281 106.793 5.64943 107.84 5.64943H110.791V6.77928Z" fill="white"/>
<path d="M117.453 3.38972L119.928 6.77928H118.405L116.216 3.95465H114.788V6.77928H113.361V0.188477H114.788V3.0131H116.216L118.405 0.188477H119.928L117.453 3.38972Z" fill="white"/>
<path d="M136.585 3.38972C137.061 3.57803 137.346 4.0488 137.346 4.89619C137.346 6.40266 136.299 6.77928 134.872 6.77928H130.874V0.188477H134.872C136.204 0.188477 137.251 0.470939 137.251 1.97741C137.251 2.73064 136.966 3.10726 136.585 3.38972ZM132.206 3.0131H134.967C135.633 3.0131 136.014 2.73064 136.014 2.16572C136.014 1.50664 135.538 1.31833 134.967 1.31833H132.302V3.0131H132.206ZM132.206 3.86049V5.64943H134.967C135.633 5.64943 136.109 5.46112 136.109 4.70788C136.109 4.0488 135.728 3.86049 135.062 3.86049H132.206Z" fill="white"/>
<path d="M145.436 6.77928H142.391C140.487 6.77928 139.535 6.21435 139.535 3.48388C139.535 0.753402 140.487 0.188477 142.391 0.188477H145.436V1.31833H142.486C141.439 1.31833 140.963 1.69495 140.963 3.48388C140.963 5.27281 141.439 5.64943 142.486 5.64943H145.436V6.77928Z" fill="white"/>
<path d="M152.099 3.38972L154.574 6.77928H153.051L150.862 3.95465H149.434V6.77928H148.006V0.188477H149.434V3.0131H150.862L153.051 0.188477H154.574L152.099 3.38972Z" fill="white"/>
<path d="M159.714 0.188477H161.237L164.568 6.77928H163.14L162.474 5.36696H158.572L157.905 6.77928H156.478L159.714 0.188477ZM159.047 4.33126H161.903L160.475 1.41248L159.047 4.33126Z" fill="white"/>
<path d="M166.567 6.77928L168.185 4.51957C167.328 4.33127 166.662 3.76634 166.662 2.44818C166.662 0.659248 167.899 0.188477 169.137 0.188477H173.039V6.77928H171.611V4.51957H169.517L167.994 6.77928H166.567ZM169.137 3.48388H171.707V1.31833H169.137C168.566 1.31833 167.994 1.50664 167.994 2.35402C167.994 3.29557 168.566 3.48388 169.137 3.48388Z" fill="white"/>
<path d="M100.797 11.0161V17.6069H99.3693V12.146H95.5621V17.6069H94.2296V11.0161H100.797Z" fill="white"/>
<path d="M105.747 12.146H103.272V11.0161H109.554V12.146H107.079V17.6069H105.651V12.146H105.747Z" fill="white"/>
<path d="M113.36 16.1008L117.168 10.9224H118.595V17.5132H117.358V12.4288L113.456 17.5132H112.028V10.9224H113.36V16.1008Z" fill="white"/>
<path d="M127.638 11.0161V17.6069H126.21V15.5355H124.306C122.117 15.5355 121.261 14.7823 121.261 12.8992V11.0161H122.688V12.9934C122.688 14.0291 123.164 14.4998 124.402 14.4998H126.21V11.0161H127.638Z" fill="white"/>
<path d="M136.585 14.7823H132.016V16.4771H136.585V17.6069H130.588V11.0161H136.585V12.146H132.016V13.8407H136.585V14.7823Z" fill="white"/>
<path d="M144.961 17.6069H141.915C140.011 17.6069 139.059 17.042 139.059 14.3115C139.059 11.581 140.011 11.0161 141.915 11.0161H144.961V12.146H142.01C140.963 12.146 140.487 12.5226 140.487 14.3115C140.487 16.1004 140.963 16.4771 142.01 16.4771H144.961V17.6069Z" fill="white"/>
<path d="M151.814 14.1236L154.288 17.5132H152.765L150.576 14.6885H149.148V17.5132H147.721V10.9224H149.148V13.747H150.576L152.765 10.9224H154.288L151.814 14.1236Z" fill="white"/>
<path d="M159.618 11.0161H161.141L164.472 17.6069H163.045L162.379 16.1946H158.476L157.81 17.6069H156.382L159.618 11.0161ZM158.952 15.0647H161.807L160.38 12.146L158.952 15.0647Z" fill="white"/>
<path d="M166.662 17.6069L168.28 15.3472C167.423 15.1589 166.757 14.594 166.757 13.2758C166.757 11.4869 167.994 11.0161 169.232 11.0161H173.134V17.6069H171.706V15.3472H169.612L168.09 17.6069H166.662ZM169.232 14.2174H171.802V12.0518H169.232C168.661 12.0518 168.09 12.2401 168.09 13.0875C168.09 14.0291 168.565 14.2174 169.232 14.2174Z" fill="white"/>
<path d="M96.3232 21.7495H97.8461L101.177 28.3403H99.7497L99.0835 26.928H95.181L94.5148 28.3403H93.0871L96.3232 21.7495ZM95.6569 25.8923H98.5124L97.0847 22.9735L95.6569 25.8923Z" fill="white"/>
<path d="M104.128 24.1976H106.698C107.935 24.1976 109.173 24.3859 109.173 26.269C109.173 28.0579 107.935 28.4345 106.698 28.4345H102.795V21.8438H108.126V22.9736H104.128V24.1976ZM106.793 25.1391H104.223V27.2105H106.793C107.364 27.2105 107.935 27.0222 107.935 26.1748C107.84 25.3275 107.364 25.1391 106.793 25.1391Z" fill="white"/>
<path d="M120.785 26.2689V28.3403H119.357V21.7495H123.354C124.687 21.7495 125.829 22.1261 125.829 24.0092C125.829 25.8923 124.592 26.1748 123.354 26.1748H120.785V26.2689ZM123.354 22.8794H120.785V25.1391H123.354C123.926 25.1391 124.497 24.9508 124.497 24.0092C124.497 23.1618 123.926 22.8794 123.354 22.8794Z" fill="white"/>
<path d="M129.351 21.7495H130.874L134.205 28.3403H132.778L132.111 26.928H128.209L127.543 28.3403H126.115L129.351 21.7495ZM128.59 25.8923H131.445L130.017 22.9735L128.59 25.8923Z" fill="white"/>
<path d="M136.394 22.8794H133.919V21.7495H140.201V22.8794H137.727V28.3403H136.299V22.8794H136.394Z" fill="white"/>
<path d="M151.433 26.2689V28.3403H150.005V21.7495H154.003C155.336 21.7495 156.478 22.1261 156.478 24.0092C156.478 25.8923 155.24 26.1748 154.003 26.1748H151.433V26.2689ZM154.003 22.8794H151.433V25.1391H154.003C154.574 25.1391 155.145 24.9508 155.145 24.0092C155.145 23.1618 154.669 22.8794 154.003 22.8794Z" fill="white"/>
<path d="M159.523 26.928L163.331 21.7495H164.758V28.3403H163.521V23.256L159.619 28.3403H158.191V21.7495H159.523V26.928Z" fill="white"/>
<path d="M166.662 28.3403L168.28 26.0806C167.423 25.8923 166.757 25.3274 166.757 24.0092C166.757 22.2203 167.994 21.7495 169.232 21.7495H173.134V28.3403H171.706V26.0806H169.612L168.09 28.3403H166.662ZM169.232 25.0449H171.802V22.8794H169.232C168.661 22.8794 168.09 23.0677 168.09 23.9151C168.09 24.8566 168.565 25.0449 169.232 25.0449Z" fill="white"/>
<path d="M88.9942 21.7495H87.4713L84.1399 28.3403H85.5676L88.2327 22.9735L90.8978 28.3403H92.3255L88.9942 21.7495Z" fill="white"/>
<path d="M88.1376 10.9224C86.234 10.9224 84.6159 12.4288 84.6159 14.4061C84.6159 16.2892 86.1388 17.8898 88.1376 17.8898C90.0412 17.8898 91.6593 16.3833 91.6593 14.4061C91.6593 12.4288 90.0412 10.9224 88.1376 10.9224ZM88.1376 16.4775C86.9955 16.4775 85.9485 15.5359 85.9485 14.3119C85.9485 13.0879 86.9003 12.1464 88.1376 12.1464C89.375 12.1464 90.3268 13.0879 90.3268 14.3119C90.3268 15.5359 89.375 16.4775 88.1376 16.4775Z" fill="white"/>
<path d="M99.1789 0C97.2753 0 95.6573 1.50647 95.6573 3.48371C95.6573 5.36679 97.1801 6.96742 99.1789 6.96742C101.083 6.96742 102.701 5.46095 102.701 3.48371C102.701 1.50647 101.178 0 99.1789 0ZM99.1789 5.5551C98.0368 5.5551 96.9898 4.61356 96.9898 3.38955C96.9898 2.16555 97.9416 1.22401 99.1789 1.22401C100.416 1.22401 101.368 2.16555 101.368 3.38955C101.368 4.61356 100.416 5.5551 99.1789 5.5551Z" fill="white"/>
<path d="M124.877 0.0942383C122.974 0.0942383 121.356 1.60071 121.356 3.57795C121.356 5.46103 122.879 7.06166 124.877 7.06166C126.781 7.06166 128.399 5.55519 128.399 3.57795C128.399 1.60071 126.876 0.0942383 124.877 0.0942383ZM124.877 5.64934C123.735 5.64934 122.783 4.7078 122.783 3.48379C122.783 2.25979 123.735 1.31824 124.973 1.31824C126.21 1.31824 127.162 2.25979 127.162 3.48379C127.162 4.7078 126.115 5.64934 124.877 5.64934Z" fill="white"/>
<path d="M144.77 21.6558C142.867 21.6558 141.248 23.1622 141.248 25.1395C141.248 27.0226 142.771 28.6232 144.77 28.6232C146.674 28.6232 148.292 27.1167 148.292 25.1395C148.292 23.1622 146.769 21.6558 144.77 21.6558ZM144.77 27.2109C143.628 27.2109 142.581 26.2693 142.581 25.0453C142.581 23.8213 143.533 22.8798 144.77 22.8798C146.007 22.8798 146.959 23.8213 146.959 25.0453C146.959 26.2693 146.007 27.2109 144.77 27.2109Z" fill="white"/>
<path d="M114.027 21.6558C112.123 21.6558 110.505 23.1622 110.505 25.1395C110.505 27.0226 112.028 28.6232 114.027 28.6232C115.931 28.6232 117.549 27.1167 117.549 25.1395C117.549 23.1622 115.931 21.6558 114.027 21.6558ZM114.027 27.2109C112.885 27.2109 111.838 26.2693 111.838 25.0453C111.838 23.8213 112.79 22.8798 114.027 22.8798C115.264 22.8798 116.216 23.8213 116.216 25.0453C116.216 26.2693 115.264 27.2109 114.027 27.2109Z" fill="white"/>
</svg>
