<svg width="57" height="57" viewBox="0 0 57 57" fill="none" xmlns="http://www.w3.org/2000/svg">
<circle r="28" transform="matrix(4.37114e-08 1 1 -4.37114e-08 28.3457 28.2705)" fill="#F87C3C"/>
<path d="M29.0528 39.4776C28.6623 39.8681 28.0291 39.8681 27.6386 39.4776L21.2746 33.1137C20.8841 32.7231 20.8841 32.09 21.2746 31.6994C21.6652 31.3089 22.2983 31.3089 22.6888 31.6994L28.3457 37.3563L34.0026 31.6994C34.3931 31.3089 35.0262 31.3089 35.4168 31.6994C35.8073 32.09 35.8073 32.7231 35.4168 33.1137L29.0528 39.4776ZM29.3457 17.2705L29.3457 38.7705L27.3457 38.7705L27.3457 17.2705L29.3457 17.2705Z" fill="white"/>
</svg>
