<svg width="27" height="27" viewBox="0 0 27 27"  xmlns="http://www.w3.org/2000/svg">
<path fill-rule="evenodd" clip-rule="evenodd" d="M0.19043 6.70312C0.19043 3.38942 2.87672 0.703125 6.19043 0.703125H20.1904C23.5041 0.703125 26.1904 3.38942 26.1904 6.70312V20.7031C26.1904 24.0168 23.5041 26.7031 20.1904 26.7031H6.19043C2.87672 26.7031 0.19043 24.0168 0.19043 20.7031V6.70312ZM13.1904 17.9198C15.5194 17.9198 17.4075 16.0318 17.4075 13.7027C17.4075 11.3736 15.5194 9.48551 13.1904 9.48551C10.8613 9.48551 8.97319 11.3736 8.97319 13.7027C8.97319 16.0318 10.8613 17.9198 13.1904 17.9198ZM13.1904 20.9198C17.1763 20.9198 20.4075 17.6886 20.4075 13.7027C20.4075 9.71675 17.1763 6.48551 13.1904 6.48551C9.20442 6.48551 5.97319 9.71675 5.97319 13.7027C5.97319 17.6886 9.20442 20.9198 13.1904 20.9198ZM21.8586 7.23919C22.7455 7.23919 23.4646 6.52017 23.4646 5.63321C23.4646 4.74625 22.7455 4.02723 21.8586 4.02723C20.9716 4.02723 20.2526 4.74625 20.2526 5.63321C20.2526 6.52017 20.9716 7.23919 21.8586 7.23919Z" fill="#D5642A"/>
</svg>
