<svg width="201" height="35" viewBox="0 0 201 35" fill="none" xmlns="http://www.w3.org/2000/svg">
<path d="M72.7729 0.75H64.5266L60.6783 9.99498C61.7778 12.1703 62.3276 14.5631 62.3276 17.1734C62.3276 24.3519 57.5997 30.4427 51.1127 32.7268L50.6729 33.4881H61.1181L68.5948 15.977L76.0714 33.5969H86.7366L72.7729 0.75Z" fill="#272B70"/>
<path d="M29.2326 17.1739C29.2326 12.9321 30.8818 9.12535 33.4107 6.29748V0.750488H25.1644L16.6982 16.8476L8.34199 0.750488H0.0957031V33.4886H8.34199V18.2616L16.8082 34.25L25.2744 18.2616V33.4886H33.5206V28.0504C30.7719 25.1137 29.2326 21.307 29.2326 17.1739Z" fill="#272B70"/>
<path d="M45.725 25.5481C50.4007 25.5481 54.1912 21.7985 54.1912 17.1732C54.1912 12.5479 50.4007 8.79834 45.725 8.79834C41.0492 8.79834 37.2588 12.5479 37.2588 17.1732C37.2588 21.7985 41.0492 25.5481 45.725 25.5481Z" fill="#D5642A"/>
<path d="M102.239 8.5808L99.7106 2.81628V8.5808H98.2812V0.967285H100.37L103.009 6.94933L105.758 0.967285H107.847V8.5808H106.418V2.81628L103.779 8.5808H102.239Z" fill="#272B70"/>
<path d="M128.079 8.5808H124.56C122.361 8.5808 121.262 7.92821 121.262 4.77404C121.262 1.61987 122.361 0.967285 124.56 0.967285H128.079V2.27246H124.67C123.461 2.27246 122.911 2.70752 122.911 4.77404C122.911 6.84057 123.461 7.27563 124.67 7.27563H128.079V8.5808Z" fill="#272B70"/>
<path d="M135.775 4.66528L138.633 8.5808H136.874L134.345 5.31786H132.696V8.5808H131.047V0.967285H132.696V4.23022H134.345L136.874 0.967285H138.633L135.775 4.66528Z" fill="#272B70"/>
<path d="M157.874 4.66528C158.424 4.88281 158.754 5.42663 158.754 6.40551C158.754 8.14574 157.545 8.5808 155.895 8.5808H151.277V0.967285H155.895C157.435 0.967285 158.644 1.29358 158.644 3.03381C158.644 3.90393 158.314 4.33898 157.874 4.66528ZM152.817 4.23022H156.005C156.775 4.23022 157.215 3.90393 157.215 3.25134C157.215 2.48999 156.665 2.27246 156.005 2.27246H152.927V4.23022H152.817ZM152.817 5.2091V7.27563H156.005C156.775 7.27563 157.325 7.0581 157.325 6.18798C157.325 5.42663 156.885 5.2091 156.115 5.2091H152.817Z" fill="#272B70"/>
<path d="M168.1 8.5808H164.582C162.383 8.5808 161.283 7.92821 161.283 4.77404C161.283 1.61987 162.383 0.967285 164.582 0.967285H168.1V2.27246H164.692C163.482 2.27246 162.932 2.70752 162.932 4.77404C162.932 6.84057 163.482 7.27563 164.692 7.27563H168.1V8.5808Z" fill="#272B70"/>
<path d="M175.796 4.66528L178.655 8.5808H176.896L174.367 5.31786H172.718V8.5808H171.068V0.967285H172.718V4.23022H174.367L176.896 0.967285H178.655L175.796 4.66528Z" fill="#272B70"/>
<path d="M184.593 0.967285H186.352L190.2 8.5808H188.551L187.781 6.94933H183.273L182.504 8.5808H180.854L184.593 0.967285ZM183.823 5.75292H187.122L185.472 2.38122L183.823 5.75292Z" fill="#272B70"/>
<path d="M192.51 8.5808L194.379 5.97045C193.389 5.75292 192.62 5.10034 192.62 3.57763C192.62 1.51111 194.049 0.967285 195.478 0.967285H199.986V8.5808H198.337V5.97045H195.918L194.159 8.5808H192.51ZM195.478 4.77404H198.447V2.27246H195.478C194.819 2.27246 194.159 2.48999 194.159 3.46887C194.159 4.55651 194.819 4.77404 195.478 4.77404Z" fill="#272B70"/>
<path d="M116.534 13.4756V21.0891H114.885V14.7808H110.487V21.0891H108.947V13.4756H116.534Z" fill="#272B70"/>
<path d="M122.251 14.7808H119.393V13.4756H126.649V14.7808H123.791V21.0891H122.141V14.7808H122.251Z" fill="#272B70"/>
<path d="M131.047 19.3487L135.445 13.3667H137.094V20.9802H135.665V15.1069L131.157 20.9802H129.508V13.3667H131.047V19.3487Z" fill="#272B70"/>
<path d="M147.54 13.4756V21.0891H145.89V18.6963H143.691C141.162 18.6963 140.173 17.8262 140.173 15.6509V13.4756H141.822V15.7596C141.822 16.9561 142.372 17.4999 143.801 17.4999H145.89V13.4756H147.54Z" fill="#272B70"/>
<path d="M157.874 17.8262H152.597V19.7839H157.874V21.0891H150.947V13.4756H157.874V14.7808H152.597V16.7385H157.874V17.8262Z" fill="#272B70"/>
<path d="M167.55 21.0891H164.032C161.833 21.0891 160.733 20.4365 160.733 17.2823C160.733 14.1282 161.833 13.4756 164.032 13.4756H167.55V14.7808H164.142C162.932 14.7808 162.383 15.2158 162.383 17.2823C162.383 19.3489 162.932 19.7839 164.142 19.7839H167.55V21.0891Z" fill="#272B70"/>
<path d="M175.466 17.0647L178.325 20.9802H176.566L174.037 17.7173H172.388V20.9802H170.738V13.3667H172.388V16.6296H174.037L176.566 13.3667H178.325L175.466 17.0647Z" fill="#272B70"/>
<path d="M184.482 13.4756H186.242L190.09 21.0891H188.441L187.671 19.4576H183.163L182.393 21.0891H180.744L184.482 13.4756ZM183.713 18.1525H187.011L185.362 14.7808L183.713 18.1525Z" fill="#272B70"/>
<path d="M192.619 21.0891L194.488 18.4788C193.499 18.2612 192.729 17.6086 192.729 16.0859C192.729 14.0194 194.158 13.4756 195.588 13.4756H200.096V21.0891H198.447V18.4788H196.028L194.268 21.0891H192.619ZM195.588 17.1736H198.556V14.672H195.588C194.928 14.672 194.268 14.8895 194.268 15.8684C194.268 16.956 194.818 17.1736 195.588 17.1736Z" fill="#272B70"/>
<path d="M111.365 25.8745H113.124L116.973 33.488H115.323L114.554 31.8566H110.046L109.276 33.488H107.627L111.365 25.8745ZM110.596 30.6601H113.894L112.245 27.2884L110.596 30.6601Z" fill="#272B70"/>
<path d="M120.381 28.7025H123.35C124.779 28.7025 126.208 28.92 126.208 31.0953C126.208 33.1619 124.779 33.5969 123.35 33.5969H118.842V25.9834H124.999V27.2886H120.381V28.7025ZM123.46 29.7902H120.491V32.183H123.46C124.119 32.183 124.779 31.9654 124.779 30.9866C124.669 30.0077 124.119 29.7902 123.46 29.7902Z" fill="#272B70"/>
<path d="M139.623 31.0952V33.488H137.974V25.8745H142.592C144.131 25.8745 145.45 26.3096 145.45 28.4849C145.45 30.6601 144.021 30.9864 142.592 30.9864H139.623V31.0952ZM142.592 27.1797H139.623V29.79H142.592C143.251 29.79 143.911 29.5725 143.911 28.4849C143.911 27.506 143.251 27.1797 142.592 27.1797Z" fill="#272B70"/>
<path d="M149.519 25.8745H151.278L155.126 33.488H153.477L152.707 31.8566H148.199L147.43 33.488H145.78L149.519 25.8745ZM148.639 30.6601H151.938L150.288 27.2884L148.639 30.6601Z" fill="#272B70"/>
<path d="M157.655 27.1797H154.796V25.8745H162.053V27.1797H159.194V33.488H157.545V27.1797H157.655Z" fill="#272B70"/>
<path d="M175.027 31.0952V33.488H173.378V25.8745H177.996C179.535 25.8745 180.855 26.3096 180.855 28.4849C180.855 30.6601 179.425 30.9864 177.996 30.9864H175.027V31.0952ZM177.996 27.1797H175.027V29.79H177.996C178.656 29.79 179.315 29.5725 179.315 28.4849C179.315 27.506 178.765 27.1797 177.996 27.1797Z" fill="#272B70"/>
<path d="M184.373 31.8566L188.771 25.8745H190.421V33.488H188.991V27.6147L184.483 33.488H182.834V25.8745H184.373V31.8566Z" fill="#272B70"/>
<path d="M192.619 33.488L194.488 30.8777C193.499 30.6602 192.729 30.0076 192.729 28.4849C192.729 26.4183 194.158 25.8745 195.588 25.8745H200.096V33.488H198.447V30.8777H196.028L194.268 33.488H192.619ZM195.588 29.6813H198.556V27.1797H195.588C194.928 27.1797 194.268 27.3972 194.268 28.3761C194.268 29.4637 194.818 29.6813 195.588 29.6813Z" fill="#272B70"/>
<path d="M102.899 25.8745H101.14L97.292 33.488H98.9412L102.02 27.2884L105.098 33.488H106.748L102.899 25.8745Z" fill="#272B70"/>
<path d="M101.91 13.3667C99.711 13.3667 97.8418 15.1069 97.8418 17.391C97.8418 19.5663 99.601 21.4153 101.91 21.4153C104.109 21.4153 105.978 19.675 105.978 17.391C105.978 15.1069 104.109 13.3667 101.91 13.3667ZM101.91 19.7838C100.591 19.7838 99.3811 18.6962 99.3811 17.2822C99.3811 15.8683 100.481 14.7806 101.91 14.7806C103.339 14.7806 104.439 15.8683 104.439 17.2822C104.439 18.6962 103.339 19.7838 101.91 19.7838Z" fill="#272B70"/>
<path d="M114.665 0.75C112.466 0.75 110.597 2.49023 110.597 4.77429C110.597 6.94958 112.356 8.79857 114.665 8.79857C116.864 8.79857 118.733 7.05834 118.733 4.77429C118.733 2.49023 116.974 0.75 114.665 0.75ZM114.665 7.16711C113.345 7.16711 112.136 6.07946 112.136 4.66552C112.136 3.25158 113.235 2.16394 114.665 2.16394C116.094 2.16394 117.194 3.25158 117.194 4.66552C117.194 6.07946 116.094 7.16711 114.665 7.16711Z" fill="#272B70"/>
<path d="M144.351 0.858887C142.152 0.858887 140.283 2.59912 140.283 4.88317C140.283 7.05846 142.042 8.90746 144.351 8.90746C146.55 8.90746 148.42 7.16723 148.42 4.88317C148.42 2.59912 146.66 0.858887 144.351 0.858887ZM144.351 7.27599C143.032 7.27599 141.932 6.18835 141.932 4.77441C141.932 3.36047 143.032 2.27283 144.461 2.27283C145.891 2.27283 146.99 3.36047 146.99 4.77441C146.99 6.18835 145.781 7.27599 144.351 7.27599Z" fill="#272B70"/>
<path d="M167.33 25.7656C165.131 25.7656 163.262 27.5059 163.262 29.7899C163.262 31.9652 165.021 33.8142 167.33 33.8142C169.529 33.8142 171.398 32.074 171.398 29.7899C171.398 27.5059 169.639 25.7656 167.33 25.7656ZM167.33 32.1827C166.01 32.1827 164.801 31.0951 164.801 29.6811C164.801 28.2672 165.901 27.1796 167.33 27.1796C168.759 27.1796 169.859 28.2672 169.859 29.6811C169.859 31.0951 168.759 32.1827 167.33 32.1827Z" fill="#272B70"/>
<path d="M131.816 25.7656C129.617 25.7656 127.748 27.5059 127.748 29.7899C127.748 31.9652 129.507 33.8142 131.816 33.8142C134.015 33.8142 135.884 32.074 135.884 29.7899C135.884 27.5059 134.015 25.7656 131.816 25.7656ZM131.816 32.1827C130.497 32.1827 129.287 31.0951 129.287 29.6811C129.287 28.2672 130.387 27.1796 131.816 27.1796C133.246 27.1796 134.345 28.2672 134.345 29.6811C134.345 31.0951 133.246 32.1827 131.816 32.1827Z" fill="#272B70"/>
</svg>
