<svg width="1181" height="34" viewBox="0 0 1181 34" fill="none" xmlns="http://www.w3.org/2000/svg">
<g clip-path="url(#clip0)">
<path d="M648.684 6.82298V21.809L651.186 21.8111V0.230469L640.076 12.6751L629.007 0.230469V21.809H631.529V6.83754L640.083 16.4601L648.684 6.82298Z" fill="#D5642A"/>
<path d="M535.697 19.3445L552.398 0.199219H530.19V2.66361H546.768L530.19 21.8422H552.372V19.3445H535.697Z" fill="#D5642A"/>
<path d="M565.075 0.199219V21.811H587.119V0.199219H565.075ZM584.606 19.3445H567.593V2.66361H584.606V19.3445Z" fill="#D5642A"/>
<path d="M607.947 0.199219C605.766 0.199219 603.633 0.833462 601.82 2.02174C600.006 3.21002 598.592 4.89898 597.758 6.87502C596.923 8.85106 596.704 11.0254 597.13 13.1232C597.555 15.2209 598.606 17.1479 600.148 18.6602C601.691 20.1726 603.656 21.2026 605.796 21.6199C607.935 22.0371 610.153 21.823 612.168 21.0045C614.183 20.186 615.906 18.7999 617.118 17.0215C618.33 15.2431 618.977 13.1523 618.977 11.0134C618.977 8.14533 617.815 5.39469 615.746 3.36663C613.678 1.33857 610.872 0.199219 607.947 0.199219ZM607.947 19.3508C606.265 19.3508 604.62 18.8616 603.221 17.945C601.822 17.0284 600.731 15.7256 600.087 14.2014C599.444 12.6772 599.275 11 599.603 9.38193C599.932 7.76384 600.742 6.27752 601.932 5.11094C603.121 3.94436 604.637 3.14991 606.288 2.82805C607.938 2.50619 609.648 2.67138 611.203 3.30273C612.757 3.93408 614.086 5.00323 615.021 6.37498C615.956 7.74674 616.455 9.35949 616.455 11.0093C616.455 13.2216 615.558 15.3433 613.963 16.9076C612.367 18.4719 610.204 19.3508 607.947 19.3508Z" fill="#D5642A"/>
<path d="M596.962 26.4902H598.131V32.0512H601.524V33.0432H596.962V26.4902Z" fill="#D5642A"/>
<path d="M606.181 26.4902H610.991V27.4802H607.356V29.198H610.724V30.1338H607.356V32.0512H611.061V33.0432H606.183L606.181 26.4902Z" fill="#D5642A"/>
<path d="M615.867 26.4902H617.112L620.154 31.3088H620.173V26.4902H621.286V33.0432H620.052L617.008 28.2247H616.981V33.0432H615.867V26.4902Z" fill="#D5642A"/>
<path d="M627.276 30.8574C627.276 31.8681 628.033 32.2611 628.972 32.2611C630.001 32.2611 630.385 31.7662 630.385 31.2712C630.4 31.095 630.354 30.919 630.254 30.772C630.154 30.6251 630.005 30.5158 629.834 30.4622C629.365 30.2896 628.756 30.169 627.84 29.9215C626.697 29.62 626.355 28.9399 626.355 28.2578C626.355 26.9455 627.59 26.332 628.796 26.332C630.192 26.332 631.363 27.0558 631.363 28.4242H630.192C630.135 27.5798 629.556 27.2679 628.75 27.2679C628.207 27.2679 627.524 27.4592 627.524 28.1205C627.524 28.5801 627.842 28.8359 628.319 28.9649C628.423 28.9919 629.901 29.3683 630.247 29.4702C630.62 29.5698 630.949 29.7864 631.184 30.0869C631.419 30.3874 631.548 30.7552 631.549 31.134C631.549 32.6022 630.22 33.1907 628.89 33.1907C627.365 33.1907 626.132 32.4733 626.101 30.849L627.276 30.8574Z" fill="#D5642A"/>
<path d="M636.413 26.4902H641.224V27.4802H637.58V29.198H640.95V30.1338H637.58V32.0512H641.291V33.0432H636.413V26.4902Z" fill="#D5642A"/>
<path d="M646.912 30.8574C646.912 31.8681 647.669 32.2611 648.609 32.2611C649.638 32.2611 650.022 31.7662 650.022 31.2712C650.037 31.095 649.991 30.919 649.89 30.772C649.79 30.6251 649.642 30.5158 649.47 30.4622C649.001 30.2896 648.393 30.169 647.476 29.9215C646.333 29.62 645.992 28.9399 645.992 28.2578C645.992 26.9455 647.228 26.332 648.435 26.332C649.831 26.332 650.999 27.0558 650.999 28.4242H649.831C649.773 27.5798 649.194 27.2679 648.388 27.2679C647.845 27.2679 647.162 27.4592 647.162 28.1205C647.162 28.5801 647.481 28.8359 647.958 28.9649C648.062 28.9919 649.54 29.3683 649.886 29.4702C650.259 29.5698 650.588 29.7864 650.823 30.0869C651.058 30.3874 651.186 30.7552 651.188 31.134C651.188 32.6022 649.858 33.1907 648.528 33.1907C647.003 33.1907 645.771 32.4733 645.739 30.849L646.912 30.8574Z" fill="#D5642A"/>
</g>
<line x1="0.69043" y1="15.7344" x2="500.69" y2="15.7344" stroke="#D5642A"/>
<line x1="680.69" y1="15.6992" x2="1180.69" y2="15.6992" stroke="#D5642A"/>
<defs>
<clipPath id="clip0">
<rect width="121" height="33" fill="white" transform="translate(530.19 0.199219)"/>
</clipPath>
</defs>
</svg>
