<svg width="355" height="25" viewBox="0 0 355 25" fill="none" xmlns="http://www.w3.org/2000/svg">
<g clip-path="url(#clip0)">
<path d="M219.783 5.6822V16.6579L221.616 16.6594V0.853882L213.479 9.96829L205.372 0.853882V16.6579H207.219V5.69286L213.484 12.7404L219.783 5.6822Z" fill="#D5642A"/>
<path d="M137.032 14.853L149.264 0.831055H133V2.63596H145.141L133 16.6823H149.245V14.853H137.032Z" fill="#D5642A"/>
<path d="M158.549 0.831055V16.6594H174.694V0.831055H158.549ZM172.853 14.853H160.393V2.63596H172.853V14.853Z" fill="#D5642A"/>
<path d="M189.948 0.831055C188.351 0.831055 186.789 1.29557 185.461 2.16586C184.132 3.03615 183.097 4.27313 182.485 5.72037C181.874 7.16761 181.714 8.76011 182.026 10.2965C182.338 11.8329 183.107 13.2441 184.237 14.3518C185.366 15.4595 186.806 16.2138 188.373 16.5194C189.939 16.825 191.564 16.6682 193.04 16.0687C194.516 15.4692 195.777 14.4541 196.665 13.1516C197.552 11.8491 198.026 10.3178 198.026 8.75133C198.026 6.65074 197.175 4.63619 195.66 3.15085C194.145 1.66551 192.091 0.831055 189.948 0.831055ZM189.948 14.8576C188.716 14.8576 187.511 14.4992 186.487 13.828C185.462 13.1567 184.664 12.2025 184.192 11.0862C183.72 9.96988 183.597 8.74151 183.837 7.55642C184.078 6.37134 184.671 5.28277 185.543 4.42837C186.414 3.57398 187.524 2.99212 188.733 2.7564C189.942 2.52067 191.194 2.64165 192.333 3.10405C193.471 3.56645 194.444 4.34949 195.129 5.35415C195.814 6.35882 196.179 7.53998 196.179 8.74828C196.179 10.3686 195.523 11.9225 194.354 13.0682C193.186 14.2139 191.601 14.8576 189.948 14.8576Z" fill="#D5642A"/>
<path d="M181.903 20.0864H182.759V24.1593H185.244V24.8858H181.903V20.0864Z" fill="#D5642A"/>
<path d="M188.654 20.0864H192.177V20.8114H189.515V22.0695H191.981V22.755H189.515V24.1593H192.228V24.8858H188.656L188.654 20.0864Z" fill="#D5642A"/>
<path d="M195.749 20.0864H196.661L198.888 23.6155H198.902V20.0864H199.718V24.8858H198.814L196.585 21.3567H196.565V24.8858H195.749V20.0864Z" fill="#D5642A"/>
<path d="M204.105 23.285C204.105 24.0253 204.659 24.3131 205.347 24.3131C206.101 24.3131 206.382 23.9506 206.382 23.5881C206.393 23.4591 206.359 23.3302 206.286 23.2225C206.213 23.1149 206.104 23.0349 205.978 22.9956C205.635 22.8692 205.189 22.7809 204.518 22.5996C203.681 22.3788 203.431 21.8807 203.431 21.3811C203.431 20.42 204.335 19.9707 205.219 19.9707C206.241 19.9707 207.098 20.5008 207.098 21.503H206.241C206.199 20.8846 205.775 20.6561 205.184 20.6561C204.787 20.6561 204.286 20.7962 204.286 21.2806C204.286 21.6172 204.519 21.8045 204.869 21.899C204.945 21.9188 206.028 22.1945 206.281 22.2691C206.554 22.342 206.795 22.5007 206.967 22.7208C207.14 22.9408 207.234 23.2102 207.235 23.4876C207.235 24.5629 206.261 24.994 205.287 24.994C204.17 24.994 203.267 24.4685 203.244 23.2789L204.105 23.285Z" fill="#D5642A"/>
<path d="M210.797 20.0864H214.32V20.8114H211.651V22.0695H214.12V22.755H211.651V24.1593H214.37V24.8858H210.797V20.0864Z" fill="#D5642A"/>
<path d="M218.486 23.285C218.486 24.0253 219.041 24.3131 219.729 24.3131C220.482 24.3131 220.764 23.9506 220.764 23.5881C220.775 23.4591 220.741 23.3302 220.667 23.2225C220.594 23.1149 220.486 23.0349 220.36 22.9956C220.016 22.8692 219.571 22.7809 218.899 22.5996C218.062 22.3788 217.812 21.8807 217.812 21.3811C217.812 20.42 218.718 19.9707 219.602 19.9707C220.624 19.9707 221.48 20.5008 221.48 21.503H220.624C220.582 20.8846 220.158 20.6561 219.567 20.6561C219.17 20.6561 218.67 20.7962 218.67 21.2806C218.67 21.6172 218.903 21.8045 219.252 21.899C219.328 21.9188 220.411 22.1945 220.664 22.2691C220.937 22.342 221.178 22.5007 221.35 22.7208C221.523 22.9408 221.617 23.2102 221.618 23.4876C221.618 24.5629 220.644 24.994 219.67 24.994C218.553 24.994 217.65 24.4685 217.627 23.2789L218.486 23.285Z" fill="#D5642A"/>
</g>
<path d="M0 12.2089H110.718" stroke="#D5642A"/>
<path d="M242.549 12.1832H355" stroke="#D5642A"/>
<defs>
<clipPath id="clip0">
<rect width="88.6197" height="24.169" fill="white" transform="translate(133 0.831055)"/>
</clipPath>
</defs>
</svg>
