<svg width="119" height="33" viewBox="0 0 119 33" fill="none" xmlns="http://www.w3.org/2000/svg">
<g clip-path="url(#clip0)">
<path d="M115.651 6.62376V21.6098L118.092 21.6119V0.03125L107.257 12.4759L96.4619 0.03125V21.6098H98.9213V6.63832L107.263 16.2609L115.651 6.62376Z" fill="#D5642A"/>
<path d="M5.46536 19.1453L21.7522 0H0.0957031V2.46439H16.2626L0.0957031 21.643H21.7274V19.1453H5.46536Z" fill="#D5642A"/>
<path d="M34.1152 0V21.6118H55.6125V0H34.1152ZM53.1614 19.1453H36.5705V2.46439H53.1614V19.1453Z" fill="#D5642A"/>
<path d="M75.9248 0C73.7975 0 71.718 0.634243 69.9492 1.82252C68.1804 3.01081 66.8018 4.69976 65.9877 6.6758C65.1736 8.65184 64.9606 10.8262 65.3756 12.924C65.7906 15.0217 66.815 16.9486 68.3193 18.461C69.8235 19.9734 71.74 21.0034 73.8264 21.4206C75.9129 21.8379 78.0755 21.6238 80.0409 20.8052C82.0063 19.9867 83.6861 18.6007 84.868 16.8223C86.0499 15.0439 86.6807 12.9531 86.6807 10.8142C86.6807 7.94611 85.5475 5.19547 83.5304 3.16741C81.5132 1.13935 78.7774 0 75.9248 0ZM75.9248 19.1516C74.2839 19.1516 72.6799 18.6623 71.3155 17.7458C69.9512 16.8292 68.8878 15.5264 68.2599 14.0022C67.6319 12.478 67.4676 10.8008 67.7877 9.18271C68.1079 7.56462 68.898 6.0783 70.0583 4.91172C71.2186 3.74514 72.6969 2.95069 74.3063 2.62883C75.9156 2.30697 77.5838 2.47216 79.0997 3.10351C80.6157 3.73486 81.9115 4.80401 82.8231 6.17577C83.7347 7.54752 84.2213 9.16027 84.2213 10.8101C84.2213 13.0224 83.3472 15.1441 81.7913 16.7084C80.2354 18.2727 78.1252 19.1516 75.9248 19.1516Z" fill="#D5642A"/>
<path d="M65.2119 26.291H66.3516V31.852H69.6611V32.844H65.2119V26.291Z" fill="#3D3D3D"/>
<path d="M74.2012 26.291H78.8924V27.2809H75.3471V28.9987H78.6318V29.9346H75.3471V31.852H78.9606V32.844H74.2032L74.2012 26.291Z" fill="#3D3D3D"/>
<path d="M83.6484 26.291H84.8626L87.8288 31.1096H87.8474V26.291H88.9333V32.844H87.7295L84.7613 28.0255H84.7344V32.844H83.6484V26.291Z" fill="#3D3D3D"/>
<path d="M94.7738 30.6581C94.7738 31.6689 95.5123 32.0619 96.4286 32.0619C97.4318 32.0619 97.8062 31.567 97.8062 31.072C97.821 30.8958 97.7759 30.7198 97.6782 30.5728C97.5804 30.4258 97.4359 30.3166 97.2684 30.263C96.8112 30.0904 96.2176 29.9698 95.324 29.7223C94.2092 29.4207 93.8761 28.7407 93.8761 28.0586C93.8761 26.7463 95.08 26.1328 96.2569 26.1328C97.6179 26.1328 98.7597 26.8565 98.7597 28.2249H97.6179C97.5621 27.3806 96.9974 27.0687 96.2114 27.0687C95.6819 27.0687 95.0159 27.26 95.0159 27.9213C95.0159 28.3809 95.3261 28.6367 95.7915 28.7657C95.8929 28.7927 97.3346 29.1691 97.6717 29.271C98.0352 29.3706 98.3562 29.5872 98.5856 29.8877C98.815 30.1882 98.9401 30.556 98.9417 30.9347C98.9417 32.403 97.6448 32.9915 96.3479 32.9915C94.8607 32.9915 93.659 32.274 93.6279 30.6498L94.7738 30.6581Z" fill="#3D3D3D"/>
<path d="M103.685 26.291H108.376V27.2809H104.822V28.9987H108.109V29.9346H104.822V31.852H108.442V32.844H103.685V26.291Z" fill="#3D3D3D"/>
<path d="M113.923 30.6581C113.923 31.6689 114.662 32.0619 115.578 32.0619C116.581 32.0619 116.955 31.567 116.955 31.072C116.97 30.8958 116.925 30.7198 116.827 30.5728C116.73 30.4258 116.585 30.3166 116.418 30.263C115.961 30.0904 115.367 29.9698 114.473 29.7223C113.358 29.4207 113.025 28.7407 113.025 28.0586C113.025 26.7463 114.231 26.1328 115.408 26.1328C116.769 26.1328 117.909 26.8565 117.909 28.2249H116.769C116.713 27.3806 116.149 27.0687 115.363 27.0687C114.833 27.0687 114.167 27.26 114.167 27.9213C114.167 28.3809 114.477 28.6367 114.943 28.7657C115.044 28.7927 116.486 29.1691 116.823 29.271C117.187 29.3706 117.508 29.5872 117.737 29.8877C117.966 30.1882 118.091 30.556 118.093 30.9347C118.093 32.403 116.796 32.9915 115.499 32.9915C114.012 32.9915 112.81 32.274 112.779 30.6498L113.923 30.6581Z" fill="#3D3D3D"/>
</g>
<defs>
<clipPath id="clip0">
<rect width="118" height="33" fill="white" transform="translate(0.0957031)"/>
</clipPath>
</defs>
</svg>
