<svg width="105" height="29" viewBox="0 0 105 29" fill="none" xmlns="http://www.w3.org/2000/svg">
<g clip-path="url(#clip0)">
<path d="M102.191 5.82076V18.9903L104.342 18.9921V0.0273438L94.7927 10.9636L85.2783 0.0273438V18.9903H87.4459V5.83356L94.7982 14.2898L102.191 5.82076Z" fill="white"/>
<path d="M5.07828 16.8247L19.4328 0H0.345703V2.16568H14.5945L0.345703 19.0196H19.4109V16.8247H5.07828Z" fill="white"/>
<path d="M30.3291 0V18.9922H49.2758V0H30.3291ZM47.1155 16.8247H32.493V2.16568H47.1155V16.8247Z" fill="white"/>
<path d="M67.178 0C65.3031 0 63.4703 0.557365 61.9113 1.60161C60.3524 2.64586 59.1373 4.13009 58.4198 5.86661C57.7024 7.60313 57.5146 9.51394 57.8804 11.3574C58.2462 13.2009 59.149 14.8943 60.4748 16.2233C61.8006 17.5524 63.4897 18.4575 65.3286 18.8242C67.1675 19.1909 69.0735 19.0027 70.8057 18.2834C72.5379 17.5641 74.0185 16.346 75.0601 14.7832C76.1018 13.2204 76.6577 11.383 76.6577 9.5034C76.6577 6.98294 75.659 4.56571 73.8812 2.78348C72.1034 1.00125 69.6922 0 67.178 0ZM67.178 16.8302C65.7318 16.8302 64.318 16.4002 63.1156 15.5948C61.9131 14.7893 60.9759 13.6444 60.4224 12.305C59.869 10.9655 59.7242 9.49162 60.0063 8.06966C60.2885 6.6477 60.9849 5.34154 62.0075 4.31636C63.0301 3.29119 64.333 2.59303 65.7515 2.31019C67.1699 2.02734 68.6401 2.17251 69.9762 2.72733C71.3124 3.28215 72.4544 4.22171 73.2578 5.42719C74.0613 6.63267 74.4902 8.04993 74.4902 9.49975C74.4902 11.4439 73.7198 13.3084 72.3485 14.6831C70.9772 16.0579 69.1173 16.8302 67.178 16.8302Z" fill="white"/>
<path d="M57.7363 23.1045H58.7408V27.9914H61.6577V28.8632H57.7363V23.1045Z" fill="white"/>
<path d="M65.6592 23.1045H69.7938V23.9744H66.6691V25.484H69.5641V26.3064H66.6691V27.9914H69.854V28.8632H65.661L65.6592 23.1045Z" fill="white"/>
<path d="M73.9854 23.1045H75.0555L77.6697 27.339H77.6861V23.1045H78.6432V28.8632H77.5822L74.9661 24.6287H74.9424V28.8632H73.9854V23.1045Z" fill="white"/>
<path d="M83.7912 26.9426C83.7912 27.8308 84.442 28.1762 85.2496 28.1762C86.1338 28.1762 86.4638 27.7413 86.4638 27.3063C86.4768 27.1515 86.4371 26.9968 86.3509 26.8677C86.2648 26.7385 86.1375 26.6425 85.9898 26.5954C85.5869 26.4437 85.0637 26.3377 84.2761 26.1202C83.2935 25.8552 83 25.2576 83 24.6582C83 23.505 84.061 22.9658 85.0983 22.9658C86.2979 22.9658 87.3042 23.6018 87.3042 24.8044H86.2979C86.2486 24.0624 85.751 23.7882 85.0582 23.7882C84.5915 23.7882 84.0045 23.9564 84.0045 24.5375C84.0045 24.9414 84.278 25.1662 84.6881 25.2795C84.7775 25.3033 86.0481 25.6341 86.3453 25.7236C86.6656 25.8111 86.9485 26.0015 87.1507 26.2656C87.3529 26.5296 87.4631 26.8528 87.4646 27.1857C87.4646 28.476 86.3216 28.9932 85.1785 28.9932C83.8678 28.9932 82.8086 28.3627 82.7812 26.9353L83.7912 26.9426Z" fill="white"/>
<path d="M91.6445 23.1045H95.7792V23.9744H92.6472V25.484H95.544V26.3064H92.6472V27.9914H95.8375V28.8632H91.6445V23.1045Z" fill="white"/>
<path d="M100.668 26.9426C100.668 27.8308 101.319 28.1762 102.127 28.1762C103.011 28.1762 103.341 27.7413 103.341 27.3063C103.354 27.1515 103.314 26.9968 103.228 26.8677C103.142 26.7385 103.015 26.6425 102.867 26.5954C102.464 26.4437 101.941 26.3377 101.153 26.1202C100.171 25.8552 99.8771 25.2576 99.8771 24.6582C99.8771 23.505 100.94 22.9658 101.977 22.9658C103.177 22.9658 104.181 23.6018 104.181 24.8044H103.177C103.128 24.0624 102.63 23.7882 101.937 23.7882C101.47 23.7882 100.883 23.9564 100.883 24.5375C100.883 24.9414 101.157 25.1662 101.567 25.2795C101.656 25.3033 102.927 25.6341 103.224 25.7236C103.545 25.8111 103.827 26.0015 104.03 26.2656C104.232 26.5296 104.342 26.8528 104.344 27.1857C104.344 28.476 103.2 28.9932 102.057 28.9932C100.747 28.9932 99.6875 28.3627 99.6602 26.9353L100.668 26.9426Z" fill="white"/>
</g>
<defs>
<clipPath id="clip0">
<rect width="104" height="29" fill="white" transform="translate(0.345703)"/>
</clipPath>
</defs>
</svg>
